#!OML:ASF E:\Style4\Style4.ASF
:FULLY-SPECIFIED
:DEGREES
3871
root 0.151372 16.9124 -1.46065 2.11823 -2.52478 4.11175
lowerback 17.546 3.12815 -1.40613
upperback 11.4454 3.87332 0.0863888
thorax 2.35044 1.86594 0.297203
lowerneck 6.99672 -4.3284 -7.47603
upperneck 0.311647 -6.25305 4.40246
head -0.716082 -3.18573 2.86458
rclavicle -3.18055e-015 2.38542e-015
rhumerus 23.296 14.6251 -75.2765
rradius 130.475
rwrist 17.8742
rhand 20.3353 -9.24223
rfingers 7.12502
rthumb 44.8473 -32.8017
lclavicle -3.18055e-015 2.38542e-015
lhumerus 28.2993 -19.9797 74.6018
lradius 132.797
lwrist -9.39416
lhand 22.0709 42.1606
lfingers 7.12502
lthumb 46.4592 65.0615
rfemur -31.0814 -6.24511 14.6568
rtibia 53.9909
rfoot -22.8193 -15.3688
rtoes -12.2813
lfemur -28.6891 6.82785 -24.0004
ltibia 50.2343
lfoot -24.0914 9.32655
ltoes -12.1992
3872
root 0.145037 16.9057 -1.46028 1.99711 -2.52313 4.19176
lowerback 17.6142 3.16571 -1.43138
upperback 11.5119 3.91791 -0.00114553
thorax 2.39274 1.89008 0.21138
lowerneck 6.86816 -4.39846 -7.20885
upperneck 0.313188 -6.31773 4.33854
head -0.698686 -3.21605 2.79023
rclavicle 3.97569e-016 -2.8625e-014
rhumerus 23.0569 14.6013 -75.2241
rradius 130.415
rwrist 17.8214
rhand 19.1629 -8.80428
rfingers 7.12502
rthumb 43.7545 -32.7781
lclavicle 3.97569e-016 -2.8625e-014
lhumerus 27.95 -20.405 74.2478
lradius 132.755
lwrist -9.72913
lhand 21.3348 41.6583
lfingers 7.12502
lthumb 45.7764 64.8453
rfemur -31.0046 -6.23565 14.5764
rtibia 54.1044
rfoot -22.8916 -15.3725
rtoes -12.2386
lfemur -28.5708 6.71867 -24.0326
ltibia 50.278
lfoot -24.2374 9.26075
ltoes -11.4303
3873
root 0.141149 16.9 -1.45909 1.88031 -2.51166 4.3734
lowerback 17.6918 3.20752 -1.52346
upperback 11.5814 3.9589 -0.11114
thorax 2.43136 1.9098 0.139291
lowerneck 6.74023 -4.47244 -6.92679
upperneck 0.275398 -6.38716 4.26159
head -0.694845 -3.24818 2.71012
rclavicle 5.56597e-015 -3.18055e-015
rhumerus 22.7451 14.5421 -75.138
rradius 130.335
rwrist 17.5919
rhand 17.8594 -8.16221
rfingers 7.12502
rthumb 42.536 -32.5701
lclavicle 5.56597e-015 -3.18055e-015
lhumerus 27.5397 -20.8518 73.9283
lradius 132.753
lwrist -9.87387
lhand 20.6113 41.3698
lfingers 7.12502
lthumb 45.1041 64.8283
rfemur -30.9391 -6.27313 14.3674
rtibia 54.2176
rfoot -22.9294 -15.3491
rtoes -12.3868
lfemur -28.4378 6.64262 -24.1952
ltibia 50.2888
lfoot -24.3387 9.18416
ltoes -10.9041
3874
root 0.13786 16.896 -1.4577 1.76725 -2.5029 4.48162
lowerback 17.7686 3.22883 -1.53015
upperback 11.6362 3.98456 -0.1858
thorax 2.45715 1.9252 0.0585076
lowerneck 6.65448 -4.52924 -6.77901
upperneck 0.279803 -6.4467 4.23076
head -0.680232 -3.27684 2.67047
rclavicle 0 1.19271e-014
rhumerus 22.2284 14.5661 -75.0646
rradius 130.288
rwrist 17.4314
rhand 16.3919 -7.15741
rfingers 7.12502
rthumb 41.1601 -32.0227
lclavicle 0 1.19271e-014
lhumerus 27.0552 -21.2153 73.6458
lradius 132.457
lwrist -10.1543
lhand 19.5773 39.9955
lfingers 7.12502
lthumb 44.1411 63.8255
rfemur -30.8617 -6.31298 14.2519
rtibia 54.3009
rfoot -22.8885 -15.4034
rtoes -12.7729
lfemur -28.3077 6.6117 -24.2923
ltibia 50.289
lfoot -24.3138 9.26156
ltoes -11.2329
3875
root 0.133117 16.8928 -1.45521 1.68711 -2.52247 4.48411
lowerback 17.7957 3.22095 -1.53541
upperback 11.6565 3.97295 -0.17539
thorax 2.46467 1.91854 0.0734085
lowerneck 6.69102 -4.53135 -6.78349
upperneck 0.269074 -6.45267 4.17566
head -0.691218 -3.27905 2.65459
rclavicle -1.15295e-014 4.77083e-015
rhumerus 21.6081 14.6842 -74.9473
rradius 130.087
rwrist 17.5483
rhand 14.5337 -5.28369
rfingers 7.12502
rthumb 39.4126 -30.6843
lclavicle -1.15295e-014 4.77083e-015
lhumerus 26.3151 -21.5038 73.3675
lradius 132.268
lwrist -10.3014
lhand 18.5465 38.9855
lfingers 7.12502
lthumb 43.1787 63.168
rfemur -30.795 -6.29299 14.266
rtibia 54.3484
rfoot -22.9021 -15.445
rtoes -12.8202
lfemur -28.2012 6.59686 -24.2638
ltibia 50.2891
lfoot -24.3698 9.20115
ltoes -10.8706
